<svg width="14" height="14" viewBox="0 0 14 14" fill="none" xmlns="http://www.w3.org/2000/svg">
    <path d="M4.66663 13.6668C4.29996 13.6668 3.98607 13.5363 3.72496 13.2752C3.46385 13.0141 3.33329 12.7002 3.33329 12.3335C3.33329 11.9668 3.46385 11.6529 3.72496 11.3918C3.98607 11.1307 4.29996 11.0002 4.66663 11.0002C5.03329 11.0002 5.34718 11.1307 5.60829 11.3918C5.8694 11.6529 5.99996 11.9668 5.99996 12.3335C5.99996 12.7002 5.8694 13.0141 5.60829 13.2752C5.34718 13.5363 5.03329 13.6668 4.66663 13.6668ZM11.3333 13.6668C10.9666 13.6668 10.6527 13.5363 10.3916 13.2752C10.1305 13.0141 9.99996 12.7002 9.99996 12.3335C9.99996 11.9668 10.1305 11.6529 10.3916 11.3918C10.6527 11.1307 10.9666 11.0002 11.3333 11.0002C11.7 11.0002 12.0138 11.1307 12.275 11.3918C12.5361 11.6529 12.6666 11.9668 12.6666 12.3335C12.6666 12.7002 12.5361 13.0141 12.275 13.2752C12.0138 13.5363 11.7 13.6668 11.3333 13.6668ZM4.09996 3.00016L5.69996 6.3335H10.3666L12.2 3.00016H4.09996ZM3.46663 1.66683H13.3C13.5555 1.66683 13.75 1.78072 13.8833 2.0085C14.0166 2.23627 14.0222 2.46683 13.9 2.70016L11.5333 6.96683C11.4111 7.18905 11.2472 7.36127 11.0416 7.4835C10.8361 7.60572 10.6111 7.66683 10.3666 7.66683H5.39996L4.66663 9.00016H12.6666V10.3335H4.66663C4.16663 10.3335 3.78885 10.1141 3.53329 9.67516C3.27774 9.23627 3.26663 8.80016 3.49996 8.36683L4.39996 6.7335L1.99996 1.66683H0.666626V0.333496H2.83329L3.46663 1.66683Z" fill="#13188D"/>
</svg>
