<?xml version="1.0" encoding="UTF-8"?>
<svg width="12px" height="12px" viewBox="0 0 12 12" version="1.1" xmlns="http://www.w3.org/2000/svg"
     xmlns:xlink="http://www.w3.org/1999/xlink">
    <g stroke="none" stroke-width="1" fill="none" fill-rule="evenodd">
        <g transform="translate(-899.000000, -180.000000)">
            <g transform="translate(899.000000, 174.000000)">
                <g transform="translate(0.000000, 6.000000)">
                    <rect x="0" y="0" width="12" height="12"/>
                    <path d="M8.57142857,3.42857143 L8.57142857,0 L1.28571429,0 C0.575633893,0 0,0.575633893 0,1.28571429 L0,8.57142857 L3.42857143,8.57142857 L3.42857143,12 L12,12 L12,3.42857143 L8.57142857,3.42857143 Z M0.857142857,1.28571429 C0.857142857,1.04902082 1.04902082,0.857142857 1.28571429,0.857142857 L7.71428571,0.857142857 L7.71428571,7.71428571 L0.857142857,7.71428571 L0.857142857,1.28571429 Z M11.1428571,11.1428571 L4.28571429,11.1428571 L4.28571429,8.57142857 L8.57142857,8.57142857 L8.57142857,4.28571429 L11.1428571,4.28571429 L11.1428571,11.1428571 Z"
                          fill="#000000"/>
                </g>
            </g>
        </g>
    </g>
</svg>
