<svg width="17" height="16" viewBox="0 0 17 16" fill="none" xmlns="http://www.w3.org/2000/svg">
    <path fill-rule="evenodd" clip-rule="evenodd" d="M8.5 0C12.9183 0 16.5 3.58172 16.5 8C16.5 12.4183 12.9183 16 8.5 16C4.08172 16 0.5 12.4183 0.5 8C0.5 3.58172 4.08172 0 8.5 0ZM11.7791 5.01941C11.1582 4.73541 10.5028 4.53389 9.82966 4.41997C9.73793 4.58473 9.65483 4.75416 9.58072 4.92756C9.22264 4.87353 8.86101 4.84634 8.49888 4.84622C8.13734 4.84622 7.77403 4.87369 7.41694 4.92684C7.344 4.75469 7.25931 4.584 7.16738 4.41988C6.49416 4.5349 5.83871 4.73682 5.21747 5.02056C3.98362 6.84581 3.64925 8.62547 3.81644 10.3798C4.53891 10.9135 5.34752 11.3194 6.20713 11.5798C6.39991 11.3196 6.57259 11.0425 6.71919 10.7542C6.43946 10.65 6.16952 10.5212 5.91253 10.3693C5.98016 10.3202 6.04631 10.2697 6.11019 10.2207C6.85744 10.5716 7.67391 10.7547 8.49997 10.7547C9.32609 10.7547 10.1425 10.5716 10.8898 10.2206C10.9545 10.2734 11.0206 10.3239 11.0875 10.3692C10.83 10.5214 10.5595 10.6506 10.2793 10.7552C10.4265 11.0441 10.5978 11.3201 10.7914 11.5801C11.6518 11.3205 12.4611 10.9146 13.1837 10.3804L13.1835 10.3806C13.3797 8.34609 12.8484 6.58278 11.7791 5.01941ZM6.93062 9.30094C6.46475 9.30094 6.07981 8.87812 6.07981 8.35797C6.07981 7.83781 6.45134 7.41131 6.92912 7.41131C7.40694 7.41131 7.78884 7.83781 7.78069 8.35797C7.7725 8.87812 7.40544 9.30094 6.93062 9.30094ZM10.0693 9.30094C9.60269 9.30094 9.21928 8.87812 9.21928 8.35797C9.21928 7.83781 9.59081 7.41131 10.0693 7.41131C10.5479 7.41131 10.9268 7.83781 10.9187 8.35797C10.9105 8.87812 10.5442 9.30094 10.0693 9.30094Z" fill="black"/>
</svg>
