<svg width="24" height="24" viewBox="0 0 24 24" fill="none" xmlns="http://www.w3.org/2000/svg">
    <path d="M12 24C18.6274 24 24 18.6274 24 12C24 5.37258 18.6274 0 12 0C5.37258 0 0 5.37258 0 12C0 18.6274 5.37258 24 12 24Z" fill="#13188D"/>
    <path d="M14.2416 10.2C14.8344 9.6072 15.156 8.8272 15.156 7.9872C15.156 7.25389 14.8986 6.54385 14.4288 5.9808L16.248 4.1616L15.8424 3.768L14.0232 5.5872C13.4616 5.1192 12.7656 4.86 12.0288 4.86C11.4103 4.86042 10.8058 5.04411 10.2917 5.38786C9.7775 5.73161 9.37673 6.22002 9.13996 6.79139C8.90319 7.36276 8.84105 7.99148 8.96137 8.59816C9.08169 9.20483 9.37909 9.76224 9.816 10.2C10.3344 10.7184 11.0112 11.0424 11.7384 11.1048V13.4112C11.0096 13.4716 10.327 13.7929 9.816 14.316C9.23042 14.9036 8.9016 15.6993 8.9016 16.5288C8.9016 17.3583 9.23042 18.154 9.816 18.7416C10.4088 19.3344 11.1888 19.656 12.0288 19.656C12.4397 19.6572 12.8469 19.5771 13.2267 19.4201C13.6065 19.2632 13.9514 19.0326 14.2416 18.7416C14.8344 18.1488 15.156 17.3688 15.156 16.5288C15.156 15.6888 14.8344 14.9088 14.2416 14.316C13.7232 13.7976 13.0464 13.4736 12.3192 13.4112V11.1048C13.0481 11.0449 13.7309 10.7235 14.2416 10.2ZM13.836 14.7192C14.3136 15.2064 14.5848 15.8424 14.5848 16.5264C14.5853 16.8621 14.5195 17.1946 14.3909 17.5048C14.2624 17.815 14.0738 18.0966 13.836 18.3336C13.3584 18.8208 12.7128 19.0824 12.0288 19.0824C11.6931 19.0829 11.3606 19.0171 11.0504 18.8885C10.7402 18.76 10.4586 18.5714 10.2216 18.3336C9.744 17.8464 9.4728 17.2104 9.4728 16.5264C9.47226 16.1907 9.53814 15.8582 9.66665 15.548C9.79517 15.2378 9.98377 14.9562 10.2216 14.7192C10.6992 14.232 11.3448 13.9704 12.0288 13.9704C12.7152 13.9728 13.3584 14.232 13.836 14.7192ZM12.0288 10.5528C11.6931 10.5533 11.3606 10.4875 11.0504 10.3589C10.7402 10.2304 10.4586 10.0418 10.2216 9.804C9.744 9.3168 9.4728 8.6808 9.4728 7.9968C9.47248 7.6611 9.53847 7.32865 9.66697 7.01852C9.79547 6.70839 9.98395 6.4267 10.2216 6.1896C10.6992 5.7024 11.3448 5.4408 12.0288 5.4408C12.3645 5.44026 12.697 5.50614 13.0072 5.63465C13.3174 5.76317 13.599 5.95177 13.836 6.1896C14.3232 6.6672 14.5848 7.3128 14.5848 7.9968C14.5853 8.33253 14.5195 8.66505 14.3909 8.97521C14.2624 9.28537 14.0738 9.56704 13.836 9.804C13.3584 10.2936 12.7152 10.5528 12.0288 10.5528Z" fill="white"/>
</svg>
