<?xml version="1.0" encoding="utf-8"?>
<!-- Generator: Adobe Illustrator 27.0.1, SVG Export Plug-In . SVG Version: 6.00 Build 0)  -->
<svg version="1.1" id="Layer_1" xmlns="http://www.w3.org/2000/svg" xmlns:xlink="http://www.w3.org/1999/xlink" x="0px" y="0px"
	 viewBox="0 0 459 144" style="enable-background:new 0 0 459 144;" xml:space="preserve">
<style type="text/css">
	.st0{fill:#FFFFFF;}
</style>
<path class="st0" d="M177.3,66.1h4.1v10.9h-4.1v3.3h12.2v-3.3h-4.1V66.1h4.1v-3.3h-12.2V66.1z M206.7,66.7c-1.5,0-2.5,1-3,2.2
	c-0.3-1.4-1.2-2.2-2.3-2.2c-1.6,0-2.4,0.9-2.9,2h-0.1l-0.3-1.7h-3v13.4h3.8v-9c0.4-0.9,0.7-1.3,1.2-1.3c0.5,0,0.8,0.4,0.8,1.2v9.1
	h3.1v-9c0.4-0.9,0.7-1.3,1.2-1.3c0.5,0,0.7,0.4,0.7,1.2v9.1h3.8V71C209.7,68.3,208.6,66.7,206.7,66.7z M73.4,5
	C36.1,5,5.8,35.3,5.8,72.7s30.3,67.7,67.7,67.7s67.7-30.3,67.7-67.7S110.8,5,73.4,5z M47.6,71.4c0,3.5-2.5,6.4-5.9,6.9v2.5
	c3.3,0.6,5.9,3.5,5.9,6.9c0,3.9-3.2,7-7,7c-3.9,0-7-3.2-7-7c0-3.5,2.5-6.4,5.9-6.9v-2.5c-3.3-0.6-5.9-3.5-5.9-6.9c0-3.9,3.2-7,7-7
	c1.5,0,2.9,0.5,4.1,1.3l3.4-3.4l1.7,1.7l-3.4,3.4C47.2,68.5,47.6,69.9,47.6,71.4z M59.4,78.4c-3.9,0-7-3.2-7-7c0-3.9,3.2-7,7-7
	s7,3.2,7,7C66.4,75.3,63.2,78.4,59.4,78.4z M73.4,78.1h-2.3V57.3h2.3V78.1z M92.1,72.4H80.7c0.4,2.2,2.2,3.6,4.6,3.6
	c1.5,0,3.1-0.7,3.9-1.8l1.9,1.4c-1.2,1.6-3.5,2.7-5.7,2.7c-2.1,0-3.8-0.7-5.1-2.1c-1.2-1.3-1.9-3-1.9-5c0-1.9,0.7-3.7,1.9-5
	c1.3-1.3,3.1-2.1,5.1-2.1c1.9,0,3.7,0.7,4.9,2.1c1.2,1.3,1.9,3,1.9,4.9V72.4z M113.3,78.1h-2.3v-11h-4.7v11h-2.3v-11h-4.7v11h-2.3
	V64.7h16.4V78.1z M85.3,66.7c-2.3,0-4,1.3-4.5,3.4h8.9C89.1,68.1,87.5,66.7,85.3,66.7z M35.9,87.8c0,2.6,2.1,4.7,4.7,4.7
	c2.6,0,4.7-2.1,4.7-4.7c0-2.6-2.1-4.7-4.7-4.7C38,83.1,35.9,85.2,35.9,87.8z M40.6,66.7c-2.6,0-4.7,2.1-4.7,4.7
	c0,2.6,2.1,4.7,4.7,4.7c2.6,0,4.7-2.1,4.7-4.7C45.3,68.8,43.2,66.7,40.6,66.7z M59.4,66.7c-2.6,0-4.7,2.1-4.7,4.7s2.1,4.7,4.7,4.7
	s4.7-2.1,4.7-4.7C64.1,68.8,62,66.7,59.4,66.7z M429.4,66.7c-3.5,0-6.8,2.6-6.8,7c0,4.5,3.3,7,6.8,7s6.8-2.6,6.8-7
	C436.2,69.2,432.9,66.7,429.4,66.7z M429.4,77.5c-1.8,0-2.8-1.5-2.8-3.8c0-2.3,0.9-3.8,2.8-3.8c1.8,0,2.8,1.5,2.8,3.8
	C432.2,76,431.2,77.5,429.4,77.5z M354.1,66.7c-3.6,0-7,2.6-7,7c0,4.5,3.3,7,7.4,7c1.8,0,3.8-0.6,5.3-1.6l-1.3-2.4
	c-1.2,0.6-2.2,0.9-3.5,0.9c-2.2,0-3.6-0.9-4-2.8h9.1c0.1-0.3,0.2-1.1,0.2-1.8C360.4,69.5,358.2,66.7,354.1,66.7z M351.1,72.2
	c0.4-1.7,1.5-2.5,3.1-2.5c1.5,0,2.5,0.9,2.7,2.5H351.1z M371.3,69.9L371.3,69.9l-0.4-2.9h-3.3v13.4h4v-7c1.2-2.4,2.9-3.3,4.5-3.3
	c1,0,1.5,0.1,2.4,0.4l0.8-3.3c-0.8-0.3-1.4-0.5-2.6-0.5C374.6,66.7,372.6,67.7,371.3,69.9z M391.8,66.7c-2.3,0-4.4,0.8-6.3,1.8
	l1.4,2.6c1.5-0.8,2.8-1.3,4.1-1.3c1.8,0,2.7,0.7,2.8,1.9c-6.3,0.4-8.8,1.9-8.8,4.9c0,2.3,1.7,4,4.4,4c1.7,0,3.4-0.8,4.8-1.8h0.1
	l0.3,1.5h3.3v-7.7C397.9,68.6,395.6,66.7,391.8,66.7z M393.9,76.4c-0.9,0.7-2,1.3-3.2,1.3c-1.1,0-1.9-0.4-1.9-1.3c0-1.1,1.1-2,5-2.2
	V76.4z M413.9,77.6c-2,0-2.8-0.8-2.8-2.8v-4.7h5.7V67h-5.7v-4.1h-3.3l-0.5,4.1l-3.6,0.2v3h3.4v4.7c0,3.5,1.5,5.9,5.8,5.9
	c1.8,0,3.2-0.4,4.4-0.7l-0.7-2.9C415.7,77.4,414.9,77.6,413.9,77.6z M452.5,66.7c-2.1,0-4.1,1.1-5.4,3.3h-0.1l-0.3-2.9h-3.3v13.4h4
	v-7c1.2-2.4,2.9-3.3,4.5-3.3c1,0,1.5,0.1,2.4,0.4l0.8-3.3C454.3,66.9,453.6,66.7,452.5,66.7z M336.9,66.7c-2,0-3.5,1-4.6,2.1h-0.1
	l-0.3-1.8h-3.2v13.4h4v-9c0.9-0.9,1.7-1.4,2.7-1.4c1.5,0,2,0.8,2,2.6v7.8h4v-8.3C341.3,68.7,339.9,66.7,336.9,66.7z M259.4,66.7
	c-3.6,0-7,2.6-7,7c0,4.5,3.3,7,7.4,7c1.8,0,3.8-0.6,5.3-1.6l-1.3-2.4c-1.2,0.6-2.2,0.9-3.5,0.9c-2.2,0-3.6-0.9-4-2.8h9.1
	c0.1-0.3,0.2-1.1,0.2-1.8C265.7,69.5,263.6,66.7,259.4,66.7z M256.5,72.2c0.4-1.7,1.5-2.5,3.1-2.5c1.5,0,2.5,0.9,2.7,2.5H256.5z
	 M242.1,77.9h-2.5c-1.6,0-2.3-0.3-2.3-1c0-0.4,0.2-0.7,0.6-1c0.7,0.2,1.3,0.3,1.8,0.3c3.1,0,5.5-1.4,5.5-4.5c0-0.7-0.3-1.3-0.6-1.8
	h2.7V67H242c-0.6-0.2-1.4-0.3-2.2-0.3c-3,0-5.8,1.6-5.8,4.9c0,1.6,0.8,2.8,1.8,3.4v0.1c-1,0.7-1.6,1.6-1.6,2.5
	c0,1.1,0.6,1.8,1.4,2.3V80c-1.4,0.7-2.1,1.6-2.1,2.7c0,2.4,2.6,3.4,6.1,3.4c4.9,0,8-2,8-4.8C247.5,78.9,245.6,77.9,242.1,77.9z
	 M239.8,69.3c1.1,0,2,0.8,2,2.2c0,1.5-0.9,2.2-2,2.2c-1.1,0-2-0.8-2-2.2C237.7,70.1,238.6,69.3,239.8,69.3z M240.1,83.6
	c-2.1,0-3.4-0.5-3.4-1.5c0-0.5,0.3-0.9,1-1.3c0.5,0.1,1.1,0.2,2,0.2h1.7c1.5,0,2.4,0.2,2.4,1C243.7,82.9,242.2,83.6,240.1,83.6z
	 M221.5,66.7c-2.3,0-4.4,0.8-6.3,1.8l1.4,2.6c1.5-0.8,2.8-1.3,4.1-1.3c1.8,0,2.7,0.7,2.8,1.9c-6.3,0.4-8.8,1.9-8.8,4.9
	c0,2.3,1.7,4,4.4,4c1.7,0,3.4-0.8,4.8-1.8h0.1l0.3,1.5h3.3v-7.7C227.6,68.6,225.3,66.7,221.5,66.7z M223.6,76.4
	c-0.9,0.7-2,1.3-3.2,1.3c-1.1,0-1.9-0.4-1.9-1.3c0-1.1,1.1-2,5-2.2V76.4z M297.5,73.7h2.6v3c-0.4,0.3-1.1,0.5-1.7,0.5
	c-2.8,0-4.2-2.1-4.2-5.7c0-3.5,1.7-5.7,4-5.7c1.4,0,2.2,0.5,3,1.3l2.2-2.5c-1.1-1.2-2.8-2.2-5.1-2.2c-4.6,0-8.2,3.3-8.2,9.2
	c0,5.9,3.6,9,8.1,9c2.3,0,4.3-1,5.5-2.1v-8.1h-6.1V73.7z M316.2,66.7c-3.6,0-7,2.6-7,7c0,4.5,3.3,7,7.4,7c1.8,0,3.8-0.6,5.3-1.6
	l-1.3-2.4c-1.2,0.6-2.2,0.9-3.5,0.9c-2.2,0-3.6-0.9-4-2.8h9.1c0.1-0.3,0.2-1.1,0.2-1.8C322.5,69.5,320.3,66.7,316.2,66.7z
	 M313.3,72.2c0.4-1.7,1.5-2.5,3.1-2.5c1.5,0,2.5,0.9,2.7,2.5H313.3z"/>
</svg>
