<svg width="135" height="40" viewBox="0 0 135 40" fill="none" xmlns="http://www.w3.org/2000/svg">
<path d="M27.5001 7.50247C23.3645 7.50247 20.0001 10.8668 20.0001 15.002C20.0001 19.1372 23.3644 22.5013 27.5001 22.5013C31.6356 22.5013 35 19.1373 35 15.002C34.9999 10.8668 31.6356 7.50247 27.5001 7.50247ZM27.5001 20.0017C24.743 20.0017 22.5 17.7589 22.5 15.0021C22.5 12.2453 24.7429 10.0025 27.5001 10.0025C30.2569 10.0025 32.5001 12.2452 32.5001 15.0021C32.5001 17.7588 30.2569 20.0017 27.5001 20.0017ZM40.0001 0H42.5V22.1264H40.0001V0ZM85 7.87757V22.1263H82.5001V10.3772H77.5001V22.1263H74.9999V10.3772H69.9999V22.1263H67.5001V7.87757H85ZM15.4549 5.28L11.8417 8.89272C10.6155 8.0188 9.11739 7.50263 7.49994 7.50263C3.36461 7.50239 0 10.8666 0 15.0019C0 18.7112 2.70756 21.7983 6.24993 22.3951V25.1073C2.70756 25.7044 0 28.7914 0 32.5007C0 36.6357 3.36453 40 7.49994 40C11.6355 40 14.9999 36.6358 14.9999 32.5007C14.9999 28.7914 12.2923 25.7044 8.74988 25.1073V22.3951C12.2922 21.7983 14.9999 18.7113 14.9999 15.0019C14.9999 13.3846 14.4837 11.8866 13.6097 10.6606L17.2227 7.04762L15.4549 5.28ZM12.4999 32.5007C12.4999 35.2573 10.257 37.5003 7.49994 37.5003C4.74314 37.5003 2.49987 35.2572 2.49987 32.5007C2.49987 29.7439 4.74314 27.5011 7.49994 27.5011C10.257 27.5011 12.4999 29.7439 12.4999 32.5007ZM7.49994 20.0016C4.74314 20.0016 2.49987 17.7588 2.49987 15.002C2.49987 12.2452 4.74314 10.0024 7.49994 10.0024C10.257 10.0024 12.4999 12.2451 12.4999 15.002C12.4999 17.7588 10.257 20.0016 7.49994 20.0016ZM55.125 7.50255C52.9987 7.50255 51.0711 8.28066 49.6974 9.69346C48.3612 11.0681 47.625 12.9532 47.625 15.0021C47.625 17.0623 48.3421 18.9453 49.6444 20.3038C51.0221 21.7415 52.9172 22.5014 55.1249 22.5014C57.4985 22.5014 59.9601 21.3463 61.25 19.6266L59.2499 18.1267C58.422 19.2308 56.7257 20.0017 55.1249 20.0017C52.5269 20.0017 50.6695 18.4855 50.2265 16.1268H62.3748V14.877C62.3748 12.8872 61.6713 11.0455 60.3935 9.69144C59.0614 8.27985 57.1904 7.50255 55.125 7.50255ZM50.2866 13.6271C50.8251 11.4378 52.665 10.0025 55.125 10.0025C57.4947 10.0025 59.259 11.4415 59.7425 13.6271H50.2866Z" fill="#181EA9"/>
<path d="M31.4323 35.7203H29.2027L28.7197 37.3997H27.5L29.8126 30.1003H30.8518L33.1253 37.3997H31.9105L31.4323 35.7203ZM29.5003 34.6875H31.1445L30.3297 31.7998L29.5003 34.6875Z" fill="black"/>
<path d="M34.1596 30.1003H38.3456V31.0979H36.8283V36.4071H38.3456V37.3997H34.1596V36.4071H35.6428V31.0979H34.1596V30.1003Z" fill="black"/>
<path d="M46.1615 30.1003H50.3475V31.0979H48.8302V36.4071H50.3475V37.3997H46.1615V36.4071H47.6447V31.0979H46.1615V30.1003Z" fill="black"/>
<path d="M53.3773 30.1003L54.2555 33.2236L55.2264 30.1003H56.6851V37.3997H55.5825V34.9231L55.6508 31.6644L54.558 35.1487H53.9481L52.9577 31.7848L53.0211 34.9231V37.3997H51.9234V30.1003H53.3773Z" fill="black"/>
<path d="M61.4371 35.7203H59.2075L58.7245 37.3997H57.5048L59.8173 30.1003H60.8565L63.1301 37.3997H61.9152L61.4371 35.7203ZM59.5051 34.6875H61.1492L60.3345 31.7998L59.5051 34.6875Z" fill="black"/>
<path d="M68.7505 36.5023C68.6529 36.6227 68.5342 36.7396 68.3943 36.8533C68.2544 36.9636 68.0967 37.0622 67.9211 37.1491C67.6999 37.2594 67.4592 37.3446 67.199 37.4048C66.9388 37.4683 66.6607 37.5 66.3647 37.5C66.0915 37.5 65.8362 37.4632 65.5987 37.3897C65.3613 37.3162 65.1466 37.2126 64.9547 37.0789C64.7628 36.9452 64.5904 36.7831 64.4376 36.5926C64.2879 36.4021 64.1627 36.1898 64.0619 35.9559C63.9481 35.7119 63.8619 35.4429 63.8033 35.1487C63.7448 34.8546 63.7139 34.5455 63.7106 34.2213V33.2888C63.7139 32.9746 63.7415 32.6738 63.7936 32.3864C63.8489 32.0989 63.9286 31.8332 64.0326 31.5892C64.1335 31.3586 64.2538 31.1481 64.3937 30.9576C64.5335 30.767 64.6929 30.6016 64.8718 30.4612C65.0669 30.3142 65.2816 30.2005 65.5158 30.1203C65.7532 30.0401 66.0102 30 66.2866 30C66.6607 30 66.9925 30.0518 67.2819 30.1554C67.5714 30.259 67.8186 30.4078 68.0235 30.6016C68.2317 30.7988 68.3959 31.0378 68.5163 31.3185C68.6366 31.5959 68.7131 31.9084 68.7456 32.256H67.5942C67.5649 32.0655 67.521 31.8934 67.4624 31.7396C67.4039 31.5826 67.3258 31.4505 67.2283 31.3436C67.1242 31.23 66.9957 31.1431 66.8428 31.0829C66.6932 31.0227 66.516 30.9926 66.311 30.9926C66.1614 30.9926 66.0232 31.0194 65.8963 31.0729C65.7695 31.123 65.6557 31.1932 65.5548 31.2834C65.4377 31.387 65.3353 31.5157 65.2475 31.6695C65.1629 31.8199 65.093 31.9886 65.0377 32.1758C64.9889 32.3396 64.9531 32.515 64.9303 32.7022C64.9076 32.8894 64.8962 33.0816 64.8962 33.2787V34.2213C64.8962 34.4519 64.9108 34.6708 64.9401 34.878C64.9726 35.0852 65.0198 35.2774 65.0816 35.4545C65.1304 35.5882 65.1873 35.7136 65.2523 35.8306C65.3206 35.9475 65.4003 36.0511 65.4914 36.1414C65.6052 36.2584 65.737 36.3486 65.8866 36.4121C66.0395 36.4756 66.2118 36.509 66.4037 36.5124C66.5176 36.5124 66.633 36.5057 66.7501 36.4923C66.8672 36.4756 66.9794 36.4505 67.0868 36.4171C67.1909 36.3837 67.2868 36.3419 67.3746 36.2918C67.4624 36.2383 67.5324 36.1765 67.5844 36.1063L67.5893 34.6474H66.3013V33.7099H68.7407L68.7505 36.5023Z" fill="black"/>
<path d="M74.1659 34.126H71.2289V36.4071H74.6587V37.3997H70.0531V30.1003H74.6343V31.0979H71.2289V33.1534H74.1659V34.126Z" fill="black"/>
<path d="M86.7533 36.5023C86.6557 36.6227 86.537 36.7396 86.3972 36.8533C86.2573 36.9636 86.0995 37.0622 85.9239 37.1491C85.7027 37.2594 85.462 37.3446 85.2018 37.4048C84.9416 37.4683 84.6636 37.5 84.3676 37.5C84.0944 37.5 83.839 37.4632 83.6016 37.3897C83.3642 37.3162 83.1495 37.2126 82.9576 37.0789C82.7657 36.9452 82.5933 36.7831 82.4404 36.5926C82.2908 36.4021 82.1656 36.1898 82.0648 35.9559C81.9509 35.7119 81.8647 35.4429 81.8062 35.1487C81.7476 34.8546 81.7167 34.5455 81.7135 34.2213V33.2888C81.7167 32.9746 81.7444 32.6738 81.7964 32.3864C81.8517 32.0989 81.9314 31.8332 82.0355 31.5892C82.1363 31.3586 82.2567 31.1481 82.3965 30.9576C82.5364 30.767 82.6958 30.6016 82.8746 30.4612C83.0698 30.3142 83.2845 30.2005 83.5186 30.1203C83.7561 30.0401 84.013 30 84.2895 30C84.6636 30 84.9953 30.0518 85.2848 30.1554C85.5743 30.259 85.8215 30.4078 86.0264 30.6016C86.2345 30.7988 86.3988 31.0378 86.5191 31.3185C86.6395 31.5959 86.7159 31.9084 86.7484 32.256H85.597C85.5678 32.0655 85.5238 31.8934 85.4653 31.7396C85.4068 31.5826 85.3287 31.4505 85.2311 31.3436C85.127 31.23 84.9986 31.1431 84.8457 31.0829C84.6961 31.0227 84.5188 30.9926 84.3139 30.9926C84.1643 30.9926 84.026 31.0194 83.8992 31.0729C83.7724 31.123 83.6585 31.1932 83.5577 31.2834C83.4406 31.387 83.3381 31.5157 83.2503 31.6695C83.1657 31.8199 83.0958 31.9886 83.0405 32.1758C82.9917 32.3396 82.956 32.515 82.9332 32.7022C82.9104 32.8894 82.899 33.0816 82.899 33.2787V34.2213C82.899 34.4519 82.9137 34.6708 82.943 34.878C82.9755 35.0852 83.0226 35.2774 83.0844 35.4545C83.1332 35.5882 83.1901 35.7136 83.2552 35.8306C83.3235 35.9475 83.4032 36.0511 83.4943 36.1414C83.6081 36.2584 83.7398 36.3486 83.8895 36.4121C84.0423 36.4756 84.2147 36.509 84.4066 36.5124C84.5204 36.5124 84.6359 36.5057 84.753 36.4923C84.8701 36.4756 84.9823 36.4505 85.0896 36.4171C85.1937 36.3837 85.2897 36.3419 85.3775 36.2918C85.4653 36.2383 85.5352 36.1765 85.5873 36.1063L85.5922 34.6474H84.3041V33.7099H86.7436L86.7533 36.5023Z" fill="black"/>
<path d="M92.1688 34.126H89.2318V36.4071H92.6616V37.3997H88.056V30.1003H92.6372V31.0979H89.2318V33.1534H92.1688V34.126Z" fill="black"/>
<path d="M98.5796 37.3997H97.4038L95.0961 32.3763L95.0912 37.3997H93.9057V30.1003H95.0961L97.3891 35.1036L97.3989 30.1003H98.5796V37.3997Z" fill="black"/>
<path d="M104.171 34.126H101.234V36.4071H104.663V37.3997H100.058V30.1003H104.639V31.0979H101.234V33.1534H104.171V34.126Z" fill="black"/>
<path d="M108.381 34.5672H107.181V37.3997H106.01V30.1003H108.264C108.632 30.1036 108.97 30.1521 109.279 30.2457C109.588 30.3392 109.855 30.4763 110.079 30.6568C110.3 30.8406 110.473 31.0695 110.596 31.3436C110.72 31.6143 110.782 31.9318 110.782 32.2961C110.782 32.5468 110.749 32.7741 110.684 32.9779C110.622 33.1818 110.534 33.3656 110.42 33.5294C110.307 33.6932 110.17 33.8369 110.011 33.9606C109.851 34.0842 109.674 34.1912 109.479 34.2814L110.996 37.3346V37.3997H109.742L108.381 34.5672ZM107.181 33.5846H108.279C108.487 33.5812 108.674 33.5495 108.84 33.4893C109.009 33.4258 109.152 33.3356 109.269 33.2186C109.373 33.1183 109.454 32.9947 109.513 32.8476C109.572 32.7005 109.601 32.5334 109.601 32.3463C109.601 32.1357 109.568 31.9519 109.503 31.7948C109.441 31.6344 109.349 31.5007 109.225 31.3937C109.111 31.2935 108.973 31.2183 108.81 31.1681C108.648 31.1146 108.466 31.0862 108.264 31.0829H107.181V33.5846Z" fill="black"/>
<path d="M115.446 35.7203H113.216L112.733 37.3997H111.513L113.826 30.1003H114.865L117.139 37.3997H115.924L115.446 35.7203ZM113.514 34.6875H115.158L114.343 31.7998L113.514 34.6875Z" fill="black"/>
<path d="M123.037 31.0979H120.847V37.3997H119.68V31.0979H117.505V30.1003H123.037V31.0979Z" fill="black"/>
<path d="M128.814 34.2363C128.814 34.5304 128.788 34.8145 128.736 35.0886C128.687 35.3626 128.615 35.6217 128.521 35.8656C128.42 36.1096 128.295 36.3352 128.145 36.5424C127.996 36.7463 127.823 36.9218 127.628 37.0689C127.439 37.2025 127.23 37.3078 126.999 37.3847C126.771 37.4616 126.521 37.5 126.247 37.5C125.964 37.5 125.704 37.4599 125.467 37.3797C125.233 37.2961 125.023 37.1825 124.837 37.0388C124.649 36.8917 124.483 36.7146 124.34 36.5074C124.2 36.3001 124.083 36.0729 123.988 35.8255C123.897 35.5882 123.829 35.3359 123.784 35.0685C123.738 34.7978 123.715 34.5204 123.715 34.2363V33.2737C123.715 32.9763 123.74 32.6888 123.788 32.4114C123.837 32.134 123.91 31.8717 124.008 31.6243C124.102 31.387 124.218 31.1698 124.354 30.9726C124.494 30.7721 124.659 30.5983 124.847 30.4512C125.029 30.3075 125.236 30.1972 125.467 30.1203C125.701 30.0401 125.958 30 126.238 30C126.521 30 126.781 30.0401 127.018 30.1203C127.256 30.2005 127.469 30.3125 127.657 30.4562C127.846 30.5999 128.01 30.7687 128.15 30.9626C128.29 31.1564 128.407 31.3687 128.501 31.5993C128.605 31.8466 128.684 32.1123 128.736 32.3964C128.788 32.6771 128.814 32.9696 128.814 33.2737V34.2363ZM127.633 33.2637C127.63 33.0799 127.618 32.8994 127.599 32.7223C127.583 32.5451 127.553 32.3763 127.511 32.2159C127.462 32.0321 127.397 31.865 127.316 31.7146C127.238 31.5608 127.142 31.4305 127.028 31.3235C126.927 31.2299 126.812 31.1564 126.682 31.1029C126.551 31.0495 126.404 31.0227 126.238 31.0227C126.078 31.0227 125.935 31.0495 125.808 31.1029C125.681 31.1531 125.571 31.2233 125.477 31.3135C125.363 31.4238 125.267 31.5558 125.189 31.7096C125.111 31.86 125.05 32.0287 125.008 32.2159C124.969 32.3763 124.94 32.5468 124.92 32.7273C124.904 32.9044 124.896 33.0832 124.896 33.2637V34.2363C124.896 34.4134 124.904 34.5889 124.92 34.7627C124.937 34.9365 124.964 35.1036 125.003 35.264C125.046 35.4445 125.102 35.6133 125.174 35.7704C125.249 35.9241 125.338 36.0545 125.442 36.1614C125.543 36.2617 125.659 36.3419 125.789 36.4021C125.922 36.4589 126.075 36.4873 126.247 36.4873C126.413 36.4873 126.563 36.4589 126.696 36.4021C126.833 36.3453 126.95 36.2684 127.048 36.1715C127.161 36.0612 127.256 35.9308 127.33 35.7804C127.409 35.6267 127.47 35.4579 127.516 35.2741C127.555 35.1136 127.583 34.9465 127.599 34.7727C127.618 34.5956 127.63 34.4168 127.633 34.2363V33.2637Z" fill="black"/>
<path d="M132.385 34.5672H131.185V37.3997H130.014V30.1003H132.268C132.635 30.1036 132.974 30.1521 133.283 30.2457C133.592 30.3392 133.858 30.4763 134.083 30.6568C134.304 30.8406 134.476 31.0695 134.6 31.3436C134.724 31.6143 134.785 31.9318 134.785 32.2961C134.785 32.5468 134.753 32.7741 134.688 32.9779C134.626 33.1818 134.538 33.3656 134.424 33.5294C134.31 33.6932 134.174 33.8369 134.014 33.9606C133.855 34.0842 133.678 34.1912 133.483 34.2814L135 37.3346V37.3997H133.746L132.385 34.5672ZM131.185 33.5846H132.283C132.491 33.5812 132.678 33.5495 132.844 33.4893C133.013 33.4258 133.156 33.3356 133.273 33.2186C133.377 33.1183 133.458 32.9947 133.517 32.8476C133.575 32.7005 133.605 32.5334 133.605 32.3463C133.605 32.1357 133.572 31.9519 133.507 31.7948C133.445 31.6344 133.353 31.5007 133.229 31.3937C133.115 31.2935 132.977 31.2183 132.814 31.1681C132.652 31.1146 132.47 31.0862 132.268 31.0829H131.185V33.5846Z" fill="black"/>
</svg>
