<?xml version="1.0" encoding="UTF-8"?>
<svg width="20px" height="20px" viewBox="0 0 20 20" version="1.1" xmlns="http://www.w3.org/2000/svg"
     xmlns:xlink="http://www.w3.org/1999/xlink">
    <g stroke="none" stroke-width="1" fill="none" fill-rule="evenodd">
        <g transform="translate(-1310.000000, -459.000000)">
            <g transform="translate(564.000000, 419.000000)">
                <g transform="translate(0.000000, 26.000000)">
                    <g transform="translate(744.000000, 12.000000)">
                        <rect x="0" y="0" width="24" height="24"/>
                        <path d="M6.34314575,6.34314575 C3.21895142,9.46734008 3.21895142,14.5326599 6.34314575,17.6568542 C9.46734008,20.7810486 14.5326599,20.7810486 17.6568542,17.6568542 C20.7810486,14.5326599 20.7810486,9.46734008 17.6568542,6.34314575 C14.5326599,3.21895142 9.46734008,3.21895142 6.34314575,6.34314575 Z M4.92893219,4.92893219 C8.83417511,1.02368927 15.1658249,1.02368927 19.0710678,4.92893219 C22.9763107,8.83417511 22.9763107,15.1658249 19.0710678,19.0710678 C15.1658249,22.9763107 8.83417511,22.9763107 4.92893219,19.0710678 C1.02368927,15.1658249 1.02368927,8.83417511 4.92893219,4.92893219 Z M10,8 L16,12 L10,16 L10,8 Z"
                              fill="#000000"/>
                    </g>
                </g>
            </g>
        </g>
    </g>
</svg>
