<?xml version="1.0" encoding="UTF-8"?>
<svg width="16px" height="16px" viewBox="0 0 16 16" version="1.1" xmlns="http://www.w3.org/2000/svg"
     xmlns:xlink="http://www.w3.org/1999/xlink">
    <g stroke="none" stroke-width="1" fill="none" fill-rule="evenodd">
        <g transform="translate(-1333.000000, -420.000000)">
            <g transform="translate(564.000000, 419.000000)">
                <g transform="translate(768.000000, 0.000000)">
                    <rect id="Box-24pt" x="0" y="0" width="18" height="18"/>
                    <path d="M9,16.5 C4.85786438,16.5 1.5,13.1421356 1.5,9 C1.5,4.85786438 4.85786438,1.5 9,1.5 C13.1421356,1.5 16.5,4.85786438 16.5,9 C16.5,13.1421356 13.1421356,16.5 9,16.5 Z M9,12.75 C9.41421356,12.75 9.75,13.0857864 9.75,13.5 C9.75,13.9142136 9.41421356,14.25 9,14.25 C8.58578644,14.25 8.25,13.9142136 8.25,13.5 C8.25,13.0857864 8.58578644,12.75 9,12.75 Z M9,4.5 C10.7397145,4.5 12,5.52150086 12,7.43181818 C12,8.68952871 11.2570473,9.60763564 9.92015379,10.1154458 L9.75,10.1767548 L9.75,11.25 L8.25,11.25 L8.25,10.1767548 C8.25,9.53516131 8.65805014,8.9645993 9.26514942,8.75728745 C10.1445496,8.45688807 10.5,8.04170777 10.5,7.43181818 C10.5,6.42753103 9.97252989,6 9,6 C8.25335844,6 7.56538796,6.60755685 7.50438783,7.32815935 L7.5,7.43181818 L6,7.43181818 C6,5.81265865 7.41307116,4.5 9,4.5 Z"
                          fill="#FFFFFF"/>
                </g>
            </g>
        </g>
    </g>
</svg>
