<?xml version="1.0" encoding="UTF-8"?>
<svg width="88px" height="64px" viewBox="0 0 88 64" version="1.1" xmlns="http://www.w3.org/2000/svg"
     xmlns:xlink="http://www.w3.org/1999/xlink">
    <defs>
        <polygon id="path-1" points="0 0 64.9244444 0 64.9244444 64 0 64"/>
        <polygon id="path-3" points="0 64 88 64 88 0 0 0"/>
    </defs>
    <g stroke="none" stroke-width="1" fill="none" fill-rule="evenodd">
        <g transform="translate(-83.000000, -42.000000)">
            <g transform="translate(83.000000, 42.000000)">
                <g>
                    <mask id="mask-2" fill="white">
                        <use xlink:href="#path-1"/>
                    </mask>
                    <path d="M39.5142715,28.8495962 C38.2606048,28.8495962 37.3230169,29.57073 37.0484542,30.6707633 L41.8676555,30.6707633 C41.621259,29.5726317 40.722255,28.8495962 39.5142715,28.8495962 L39.5142715,28.8495962 Z M25.4351752,28.8495962 C24.0300282,28.8495962 22.8869428,29.9765579 22.8869428,31.3614695 C22.8869428,32.7466093 24.0300282,33.873571 25.4351752,33.873571 C26.8402451,33.873571 27.9833305,32.7466093 27.9833305,31.3614695 C27.9833305,29.9765579 26.8402451,28.8495962 25.4351752,28.8495962 L25.4351752,28.8495962 Z M15.2420139,28.8495962 C13.836944,28.8495962 12.6938585,29.9764058 12.6938585,31.3614695 C12.6938585,32.7466093 13.836944,33.873571 15.2420139,33.873571 C16.6471609,33.873571 17.7902463,32.7466093 17.7902463,31.3614695 C17.7902463,29.9764058 16.6471609,28.8495962 15.2420139,28.8495962 L15.2420139,28.8495962 Z M54.7401573,34.9411989 L53.4661183,34.9411989 L53.4661183,29.037943 L50.9178858,29.037943 L50.9178858,34.9411989 L49.6435381,34.9411989 L49.6435381,29.037943 L47.0953828,29.037943 L47.0953828,34.9411989 L45.8212665,34.9411989 L45.8212665,27.7820443 L54.7401573,27.7820443 L54.7401573,34.9411989 Z M43.2092935,31.926738 L37.0178186,31.926738 C37.2436885,33.1117403 38.1902278,33.8736471 39.5142715,33.8736471 C40.3301659,33.8736471 41.1946758,33.4862278 41.6166289,32.9316851 L42.6358602,33.6853764 C41.978777,34.5491395 40.7241071,35.1296218 39.5142715,35.1296218 C38.3891662,35.1296218 37.423335,34.7476795 36.7210316,34.0255568 C36.0573892,33.3428378 35.692,32.396692 35.692,31.3615456 C35.692,30.3322564 36.0670351,29.3849696 36.7482718,28.6944155 C37.4484145,27.9844639 38.4307596,27.5934694 39.5142715,27.5934694 C40.5669164,27.5934694 41.5205551,27.9840835 42.1994767,28.6935027 C42.8506179,29.3737114 43.2092935,30.2989382 43.2092935,31.2987887 L43.2092935,31.926738 Z M31.8058336,34.9411229 L33.0799498,34.9411229 L33.0799498,23.824024 L31.8058336,23.824024 L31.8058336,34.9411229 Z M25.4351752,35.1295457 C23.3275705,35.1295457 21.6128265,33.4392172 21.6128265,31.3614695 C21.6128265,29.28395 23.3275705,27.5936215 25.4351752,27.5936215 C27.5428572,27.5936215 29.2574468,29.28395 29.2574468,31.3614695 C29.2574468,33.4392172 27.5428572,35.1295457 25.4351752,35.1295457 L25.4351752,35.1295457 Z M19.0643626,31.3614695 C19.0643626,33.2252352 17.6845265,34.7762053 15.8791106,35.0761453 L15.8791106,36.4387686 C17.6845265,36.7388607 19.0643626,38.289983 19.0643626,40.1535966 C19.0643626,42.2311161 17.349773,43.9216727 15.2420139,43.9216727 C13.1344862,43.9216727 11.4197423,42.2311161 11.4197423,40.1535966 C11.4197423,38.289983 12.7995783,36.7388607 14.6049943,36.4387686 L14.6049943,35.0761453 C12.7995783,34.7762053 11.4197423,33.2252352 11.4197423,31.3614695 C11.4197423,29.28395 13.1344862,27.5936215 15.2420139,27.5936215 C16.0662423,27.5936215 16.8298169,27.8530167 17.4549526,28.2919346 L19.2964059,26.476853 L20.1974162,27.3650343 L18.3558857,29.1801159 C18.801375,29.7965027 19.0643626,30.549053 19.0643626,31.3614695 L19.0643626,31.3614695 Z M32.4622222,-1.5213793e-05 C14.5339228,-1.5213793e-05 0,14.3267376 0,31.9999848 C0,49.6732472 14.5339228,64 32.4622222,64 C50.3905216,64 64.9244444,49.6732472 64.9244444,31.9999848 C64.9244444,14.3267376 50.3905216,-1.5213793e-05 32.4622222,-1.5213793e-05 L32.4622222,-1.5213793e-05 Z M12.6938585,40.1535966 C12.6938585,41.5386603 13.836944,42.6655459 15.2420139,42.6655459 C16.6471609,42.6655459 17.7902463,41.5386603 17.7902463,40.1535966 C17.7902463,38.7683046 16.6471609,37.641495 15.2420139,37.641495 C13.836944,37.641495 12.6938585,38.7683046 12.6938585,40.1535966 L12.6938585,40.1535966 Z"
                          fill="#F9F9F9" mask="url(#mask-2)"/>
                </g>
                <path d="M78.9897473,32.8595652 L77.6349463,29.1378441 L76.2813638,32.8595652 L78.9897473,32.8595652 Z M79.789865,35.0691743 L75.4812461,35.0691743 L74.7888058,37.0120482 L71.5733333,37.0120482 L75.9896296,25.8313253 L79.2814815,25.8313253 L83.6977778,37.0120482 L80.4823053,37.0120482 L79.789865,35.0691743 Z"
                      fill="#F9F9F9"/>
                <mask id="mask-4" fill="white">
                    <use xlink:href="#path-3"/>
                </mask>
                <polygon fill="#F9F9F9" mask="url(#mask-4)"
                         points="84.8711111 37.0120482 88 37.0120482 88 25.8313253 84.8711111 25.8313253"/>
            </g>
        </g>
    </g>
</svg>
